<svg width="355" height="78" viewBox="0 0 355 78" fill="none" xmlns="http://www.w3.org/2000/svg">
<path d="M60.4636 6.5C53.9637 12 53.382 18.5 48.9637 18.5C44.5454 18.5 48.9636 11.1944 48.9637 6.5C48.9637 1.80558 52.0454 0 56.4637 0C60.8819 0 60.4636 1.80558 60.4636 6.5Z" fill="url(#paint0_linear)"/>
<path d="M15.2197 60C8.38379 60 4.96582 56.582 4.96582 49.7461V46.5234L10.5322 43.8867H10.8252V49.7461C10.8252 53.0664 12.29 54.7266 15.2197 54.7266H24.3018C27.2314 54.7266 28.6963 53.0664 28.6963 49.7461V43.5938C28.6963 40.2734 27.2314 38.6133 24.3018 38.6133H16.3916C10.5322 38.6133 7.60254 35.6836 7.60254 29.8242V24.5508C7.60254 18.6914 10.5322 15.7617 16.3916 15.7617H23.1299C28.9893 15.7617 31.9189 18.6914 31.9189 24.5508V26.1035L26.3525 28.7402H26.0596V24.5508C26.0596 22.207 25.083 21.0352 23.1299 21.0352H16.3916C14.4385 21.0352 13.4619 22.207 13.4619 24.5508V29.8242C13.4619 32.168 14.4385 33.3398 16.3916 33.3398H24.3018C31.1377 33.3398 34.5557 36.7578 34.5557 43.5938V49.7461C34.5557 56.582 31.1377 60 24.3018 60H15.2197ZM48.1025 61.1719V17.2266L53.6689 14.5898H53.9619V58.5352L48.3955 61.1719H48.1025ZM68.6807 61.1719V26.0156C68.6807 19.1797 72.0986 15.7617 78.9346 15.7617H88.0166C91.5322 15.7617 93.9736 16.6992 95.3408 18.5742C96.9033 16.6992 99.3447 15.7617 102.665 15.7617H111.747C118.583 15.7617 122.001 19.1797 122.001 26.0156V58.5352L116.435 61.1719H116.142V26.0156C116.142 22.6953 114.677 21.0352 111.747 21.0352H102.665C99.7354 21.0352 98.2705 22.6953 98.2705 26.0156V58.5352L92.7041 61.1719H92.4111V26.0156C92.4111 22.6953 90.9463 21.0352 88.0166 21.0352H78.9346C76.0049 21.0352 74.54 22.6953 74.54 26.0156V58.5352L68.9736 61.1719H68.6807ZM136.72 61.1719V17.2266L139.825 15.7617H155.47C162.306 15.7617 165.724 19.1797 165.724 26.0156V34.8047C165.724 41.6406 162.306 45.0586 155.47 45.0586H142.579V58.5352L137.013 61.1719H136.72ZM142.579 21.0352V39.7852H155.47C158.399 39.7852 159.864 38.125 159.864 34.8047V26.0156C159.864 22.6953 158.399 21.0352 155.47 21.0352H142.579ZM178.978 60V17.2266L184.544 14.5898H184.837V54.668H204.905V54.9609L202.532 60H178.978ZM216.987 61.1719V45.8789H215.376C208.54 45.8789 205.122 42.4609 205.122 35.625V17.2266L210.688 14.5898H210.981V35.625C210.981 38.9453 212.446 40.6055 215.376 40.6055H224.458C227.388 40.6055 228.853 38.9453 228.853 35.625V17.2266L234.419 14.5898H234.712V35.625C234.712 42.4609 231.294 45.8789 224.458 45.8789H222.847V58.5352L217.28 61.1719H216.987ZM249.797 60C246.379 60 244.67 58.291 244.67 54.873V46.3281C244.67 42.9102 246.379 41.2012 249.797 41.2012H253.728C257.146 41.2012 258.854 42.9102 258.854 46.3281V61.8799C258.854 65.2979 257.146 67.0068 253.728 67.0068H246.447V66.8359L247.814 63.9307H253.728C254.867 63.9307 255.437 63.2471 255.437 61.8799V59.4873C254.958 59.8291 254.388 60 253.728 60H249.797ZM249.797 56.9238H253.728C254.867 56.9238 255.437 56.2402 255.437 54.873V46.3281C255.437 44.9609 254.867 44.2773 253.728 44.2773H249.797C248.658 44.2773 248.088 44.9609 248.088 46.3281V54.873C248.088 56.2402 248.658 56.9238 249.797 56.9238ZM270.517 56.9238H274.105C275.245 56.9238 275.814 56.2402 275.814 54.873V52.5317C275.814 51.1646 275.245 50.481 274.105 50.481H270.517C269.377 50.481 268.808 51.1646 268.808 52.5317V54.873C268.808 56.2402 269.377 56.9238 270.517 56.9238ZM270.517 60C267.099 60 265.39 58.291 265.39 54.873V52.5317C265.39 49.1138 267.099 47.4048 270.517 47.4048H274.105C274.698 47.4048 275.268 47.5757 275.814 47.9175V46.3281C275.814 44.9609 275.245 44.2773 274.105 44.2773H267.987V44.1064L269.354 41.2012H274.105C277.523 41.2012 279.232 42.9102 279.232 46.3281V59.1455L275.985 60.6836H275.814V59.4873C275.382 59.8291 274.812 60 274.105 60H270.517ZM286.109 60.6836V46.3281C286.109 42.9102 287.818 41.2012 291.236 41.2012H295.167C296.739 41.2012 297.879 41.6227 298.585 42.4658C299.337 41.6227 300.476 41.2012 302.003 41.2012H305.934C309.352 41.2012 311.061 42.9102 311.061 46.3281V59.1455L307.813 60.6836H307.643V46.3281C307.643 44.9609 307.073 44.2773 305.934 44.2773H302.003C300.864 44.2773 300.294 44.9609 300.294 46.3281V59.1455L297.047 60.6836H296.876V46.3281C296.876 44.9609 296.306 44.2773 295.167 44.2773H291.236C290.097 44.2773 289.527 44.9609 289.527 46.3281V59.1455L286.28 60.6836H286.109ZM323.064 60C319.646 60 317.938 58.291 317.938 54.873V46.3281C317.938 42.9102 319.646 41.2012 323.064 41.2012H326.995C330.413 41.2012 332.122 42.9102 332.122 46.3281V47.2339L321.407 55.5225C321.566 56.4567 322.119 56.9238 323.064 56.9238H326.995C328.134 56.9238 328.704 56.2402 328.704 54.873V53.9673L331.951 52.4292H332.122V54.873C332.122 58.291 330.413 60 326.995 60H323.064ZM321.355 51.9507L328.687 46.0376C328.619 44.8641 328.055 44.2773 326.995 44.2773H323.064C321.925 44.2773 321.355 44.9609 321.355 46.3281V51.9507ZM343.613 60C340.195 60 338.486 58.291 338.486 54.873V54.2578L341.733 52.7197H341.904V54.873C341.904 56.2402 342.474 56.9238 343.613 56.9238H347.544C348.683 56.9238 349.253 56.2402 349.253 54.873V53.5229C349.253 52.1558 348.683 51.4722 347.544 51.4722H344.331C340.913 51.4722 339.204 49.7575 339.204 46.3281C339.204 42.9102 340.913 41.2012 344.331 41.2012H346.331C349.749 41.2012 351.458 42.5798 351.458 45.3369L348.21 46.875H348.04V46.3281C348.04 44.9609 347.47 44.2773 346.331 44.2773H344.331C343.192 44.2773 342.622 44.9609 342.622 46.3281C342.622 47.7067 343.192 48.396 344.331 48.396H347.544C350.962 48.396 352.671 50.105 352.671 53.5229V54.873C352.671 58.291 350.962 60 347.544 60H343.613Z" fill="url(#paint1_linear)"/>
<defs>
<linearGradient id="paint0_linear" x1="52.4637" y1="-2" x2="67.0851" y2="14.6495" gradientUnits="userSpaceOnUse">
<stop stop-color="#7ACFA7"/>
<stop offset="0.370313" stop-color="#EEC3D3"/>
<stop offset="0.729695" stop-color="#E8F692"/>
</linearGradient>
<linearGradient id="paint1_linear" x1="0" y1="39" x2="372.875" y2="39" gradientUnits="userSpaceOnUse">
<stop offset="0.11327" stop-color="#E2A0B8"/>
<stop offset="0.464065" stop-color="#7ACFA7"/>
<stop offset="0.919629" stop-color="#E8F692"/>
</linearGradient>
</defs>
</svg>
